<svg width="311" height="57" viewBox="0 0 311 57" fill="none" xmlns="http://www.w3.org/2000/svg">
<path d="M40.3736 56.7886H36.194C32.987 56.7886 30.0954 56.7098 27.5193 56.552C24.9957 56.3943 22.3933 56.1051 19.712 55.6846C17.0833 55.264 14.7437 54.6594 12.6934 53.8708C10.6955 53.0821 8.82917 52.1358 7.09422 51.0318C5.41185 49.8751 3.99235 48.4293 2.83572 46.6944C1.73167 44.9594 0.943056 42.9879 0.469889 40.7798H16.9519C18.1085 42.7776 20.3166 44.1183 23.5762 44.8017C26.8884 45.4326 32.2246 45.7481 39.585 45.7481C47.1557 45.7481 52.4919 45.3012 55.5938 44.4074C58.7482 43.5137 60.3518 41.8313 60.4043 39.3603V38.8871C60.4043 37.3099 59.826 36.1533 58.6694 35.4173C57.5128 34.6286 55.3309 34.208 52.1239 34.1555L24.9957 33.2091C16.7941 32.9988 11.0373 31.7371 7.72511 29.4238C4.41294 27.1105 2.75686 23.4304 2.75686 18.3832V17.7524C2.75686 11.1806 5.41185 6.58037 10.7218 3.95167C16.0844 1.32296 24.6803 0.00861111 36.5094 0.00861111H39.6639C44.3955 0.00861111 48.4963 0.218908 51.9662 0.639501C55.4361 1.06009 58.8271 1.82242 62.1393 2.92647C65.504 4.03053 68.2379 5.73919 70.3408 8.05244C72.4438 10.3131 73.9159 13.1521 74.7571 16.5694H58.2751C57.3813 14.4139 55.2784 12.9681 51.9662 12.2321C48.7066 11.4435 43.8435 11.0492 37.3769 11.0492C29.9639 11.0492 24.9694 11.496 22.3933 12.3898C19.8171 13.231 18.5291 14.7031 18.5291 16.806V16.9637C18.5291 18.541 19.1074 19.7239 20.264 20.5125C21.4207 21.2485 23.5762 21.6691 26.7306 21.7743L53.8589 22.7206C62.113 23.0361 67.8699 24.2978 71.1294 26.5059C74.389 28.7141 76.0188 32.3154 76.0188 37.3099V37.9408C76.0188 45.0909 73.1798 50.0328 67.5018 52.7667C61.8764 55.448 52.8337 56.7886 40.3736 56.7886ZM90.3124 24.2978H79.8239V14.2036H90.3124V0.797221H104.35V14.2036H118.939V24.2978H104.35V37.4676C104.35 41.0952 105.086 43.4348 106.558 44.4863C108.082 45.5378 110.974 46.0635 115.233 46.0635H118.939V56H110.343C102.825 56 97.5939 54.7908 94.6498 52.3724C91.7582 49.9014 90.3124 45.6429 90.3124 39.5969V24.2978ZM157.421 14.2036H160.339V25.0864H153.714C148.615 25.0864 144.908 25.8488 142.595 27.3734C140.282 28.8981 139.125 31.6319 139.125 35.575V56H125.009V14.2036H139.125V21.5377H139.519C140.728 18.909 142.779 17.0426 145.67 15.9386C148.562 14.7819 152.479 14.2036 157.421 14.2036ZM165.287 0.797221H179.403V9.47194H165.287V0.797221ZM165.287 14.2036H179.403V56H165.287V14.2036ZM246.619 0.797221V56H232.582V48.5871H232.188C230.873 51.4261 228.613 53.5027 225.406 54.8171C222.199 56.1314 217.756 56.7886 212.078 56.7886H210.343C202.352 56.7886 196.306 55.2903 192.205 52.2935C188.157 49.2968 186.133 44.1183 186.133 36.7579V33.4457C186.133 26.0854 188.157 20.9068 192.205 17.9101C196.306 14.9134 202.352 13.415 210.343 13.415H212.078C217.756 13.415 222.199 14.0722 225.406 15.3865C228.613 16.7009 230.873 18.7776 232.188 21.6166H232.582V0.797221H246.619ZM203.877 44.2497C206.295 45.5115 210.475 46.1424 216.416 46.1424C222.356 46.1424 226.536 45.5115 228.955 44.2497C231.373 42.9353 232.582 40.2278 232.582 36.127V34.0766C232.582 30.0284 231.347 27.3471 228.876 26.0328C226.457 24.7184 222.304 24.0612 216.416 24.0612C210.475 24.0612 206.295 24.7184 203.877 26.0328C201.458 27.2946 200.249 29.9758 200.249 34.0766V36.127C200.249 40.2278 201.458 42.9353 203.877 44.2497ZM295.715 43.0668H310.068C308.911 47.9562 306.309 51.4786 302.261 53.6342C298.265 55.7371 291.746 56.7886 282.703 56.7886H280.811C271.242 56.7886 264.25 55.3165 259.834 52.3724C255.47 49.4282 253.288 44.2234 253.288 36.7579V33.4457C253.288 25.9802 255.47 20.7754 259.834 17.8312C264.25 14.8871 271.242 13.415 280.811 13.415H282.388C292.009 13.415 299.08 14.9134 303.602 17.9101C308.123 20.8542 310.384 26.0328 310.384 33.4457V37.8619H267.404C267.562 41.6999 268.692 44.1971 270.795 45.3538C272.951 46.4578 276.631 47.0098 281.836 47.0098C286.462 47.0098 289.696 46.7207 291.536 46.1424C293.428 45.564 294.822 44.5389 295.715 43.0668ZM281.836 22.3263C277.052 22.3263 273.555 22.852 271.347 23.9035C269.139 24.9024 267.851 27.0054 267.483 30.2124H296.267V29.897C296.267 26.9528 295.085 24.955 292.719 23.9035C290.405 22.852 286.778 22.3263 281.836 22.3263Z" fill="black"/>
</svg>
